<?xml version="1.0" encoding="utf-8"?>
<!-- Svg Vector Icons : http://www.onlinewebfonts.com/icon -->
<!DOCTYPE svg PUBLIC "-//W3C//DTD SVG 1.1//EN" "http://www.w3.org/Graphics/SVG/1.1/DTD/svg11.dtd">
<svg version="1.1" xmlns="http://www.w3.org/2000/svg" xmlns:xlink="http://www.w3.org/1999/xlink" x="0px" y="0px" viewBox="0 0 256 256" enable-background="new 0 0 256 256" xml:space="preserve">
<metadata> Svg Vector Icons : http://www.onlinewebfonts.com/icon </metadata>
<g><g><g><path fill="#E9875D" d="M164.8,19c-8.5,8.5-9,9.1-9,10.8c0,2.7,2.1,4.7,5.1,4.7c2.1,0,2.5-0.2,5.9-3.5l3.7-3.5v12.6c0,10.3,0.1,12.9,0.7,14c1.5,2.9,5.3,3.5,7.7,1.2l1.4-1.4V40.8c0-7.7,0.2-13.1,0.4-13.1c0.2,0,1.7,1.4,3.2,3c4.4,4.9,6.5,5.5,9.4,2.6c1.3-1.3,1.7-2.1,1.7-3.5c0-1.8-0.5-2.4-9-10.8c-8.1-8.1-9.1-9-10.6-9C174,10,173,10.8,164.8,19z"/><path fill="#E9875D" d="M126,51.2c-7.3,1.5-11.7,6.5-12.2,13.6l-0.2,3.5L112,68c-3-0.7-8.8-0.3-11.6,0.8c-3.2,1.2-6.6,4.3-8,7.4c-1,2.2-1,2.5-0.8,32.4l0.1,30.2l-4.8,0.1c-13.5,0.3-20,5.4-24,19c-3.4,11.9-2.4,27.4,3,43.9c6.5,19.7,17.7,35.2,29.9,41.4c5.9,2.9,5.4,2.9,34.8,2.8c14.9,0,28.6-0.2,30.4-0.5c11.9-1.6,21.8-12.8,28-31.6c3.9-11.9,6.1-26,6.1-39.1c0-19.5-4.1-32.2-11.7-36.1c-1.9-1-10.5-3.1-26.6-6.5c-5.3-1.1-9.7-2.1-9.9-2.2c-0.1-0.1-0.4-14.8-0.6-32.7c-0.2-18.3-0.5-33.7-0.8-35.1c-0.9-4.7-4.4-8.5-9.4-10.3C133.6,51,128.6,50.7,126,51.2z M134.1,62.6l1.3,1.3l0.4,35.6c0.4,38.7,0.3,37.7,3.2,38.9c0.7,0.3,6.2,1.6,12.2,2.8c13,2.7,26.4,5.9,27.7,6.6c1.3,0.7,3.3,5.1,4.6,10.2c1,3.9,1.1,5.5,1.1,16.1c0,13.1-0.5,17.6-3.5,29.1c-4,15.8-10.6,27.1-17.8,30.6c-2.1,1-3.1,1.1-16.2,1.5c-7.7,0.2-20.7,0.3-28.9,0.2l-15-0.1l-3.4-1.7c-4.3-2.2-11.2-8.9-14.9-14.5c-5.6-8.5-10.5-20.5-12.9-31.2c-1.5-6.8-1.8-19-0.7-24.5c0.9-4.7,2.9-9.3,4.9-11.7c1.8-2.2,5.2-3.1,10.9-3.1h4.6v2.5c0,3,0.7,4.5,2.5,5.6c2,1.2,4.4,0.7,6-1.3l1.3-1.5l-0.2-37l-0.1-37l1.4-1c2-1.5,7.1-1.5,9,0c1.3,1,1.4,1.3,1.7,5.4c0.2,2.4,0.3,14.7,0.4,27.3c0,13,0.2,23.4,0.5,24.1c0.8,2.1,2.5,3.3,4.7,3.3c2.5,0,3.9-1,4.6-3.1c0.4-1.1,0.4-12,0-36.4c-0.4-33.2-0.4-34.9,0.4-36.1c1.4-1.9,2.9-2.5,6.1-2.3C132.3,61.3,133.1,61.6,134.1,62.6z"/><path fill="#E9875D" d="M172.9,65.5c-2.1,1.2-2.3,2.7-2.3,15.9V94l-3.7-3.5c-3.4-3.2-3.8-3.5-5.8-3.5c-1.7,0-2.4,0.3-3.4,1.3c-1.7,1.9-2.1,3.2-1.2,5.2c0.4,0.9,4.5,5.3,9,9.8c7.4,7.3,8.5,8.2,9.9,8.2c1.4,0,2.6-0.9,9.8-7.9c4.5-4.3,8.5-8.5,9-9.2c2.3-3.3-0.1-7.4-4.2-7.4c-2.1,0-2.4,0.1-5.5,3.4c-1.8,1.9-3.5,3.4-3.7,3.4c-0.2,0-0.4-5.9-0.4-13.1V67.7l-1.3-1.4c-1-1.1-1.8-1.4-3.3-1.4C174.6,64.9,173.4,65.2,172.9,65.5z"/></g></g></g>
</svg>